<svg xmlns="http://www.w3.org/2000/svg" width="592" height="592" fill="none"><g fill="#fff" opacity=".05"><path d="M120.749 186.056c18.125-30.672 42.919-57.289 72.672-78.015s63.757-35.068 99.666-42.036c35.909-6.969 72.869-6.398 108.331 1.672 35.462 8.071 68.581 23.45 97.074 45.075l-71.641 86.415c-15.597-11.838-33.727-20.256-53.138-24.674-19.412-4.418-39.644-4.73-59.301-.916-19.656 3.815-38.27 11.666-54.557 23.011-16.287 11.346-29.859 25.916-39.781 42.706l-99.325-53.238Zm420.889 215.688c-19.279 30.027-45.065 55.764-75.577 75.436-30.513 19.673-65.028 32.812-101.163 38.513-36.136 5.701-73.032 3.827-108.145-5.492-35.112-9.32-67.605-25.863-95.237-48.488l74.869-83.87c15.125 12.385 32.912 21.441 52.133 26.542 19.22 5.102 39.417 6.127 59.198 3.007 19.78-3.121 38.673-10.313 55.376-21.082 16.703-10.769 30.818-24.857 41.371-41.294l97.175 56.728ZM276.731 303.13 155.516 431.348l-31.925-215.862 153.14 87.644Z"/><path d="M208.138 313.274 86.923 441.492 54.999 225.63l153.139 87.644Z"/></g></svg>