<svg xmlns="http://www.w3.org/2000/svg" width="32" height="33" fill="none"><path fill="#F49B33" d="M16 32.432c8.837 0 16-7.164 16-16 0-8.837-7.163-16-16-16s-16 7.163-16 16c0 8.836 7.163 16 16 16Z"/><path fill="#fff" d="M21.894 13.164c-.157-2.006-1.878-2.709-4.056-2.939l.049-2.78-1.69-.027-.05 2.706c-.445-.01-.899-.006-1.353-.006l.05-2.725-1.691-.03-.05 2.78c-.364 0-.726.002-1.076-.007v-.01l-2.335-.039-.03 1.807s1.251-.003 1.23.022c.684.012.902.414.96.757l-.055 3.167c.046 0 .107.003.178.015l-.178-.003-.077 4.436c-.034.215-.166.556-.647.55.021.018-1.23-.022-1.23-.022l-.372 2.013 2.203.04c.408.009.813.021 1.209.03l-.05 2.81 1.691.028.05-2.78c.463.016.914.028 1.352.037l-.049 2.768 1.69.027.05-2.804c2.847-.113 4.85-.794 5.145-3.464.236-2.147-.758-3.126-2.365-3.54.988-.479 1.617-1.347 1.497-2.817Zm-2.473 5.97c-.034 2.102-3.63 1.799-4.777 1.78l.067-3.724c1.148.018 4.75-.249 4.71 1.945Zm-.693-5.27c-.034 1.911-3.032 1.635-3.986 1.62l.058-3.378c.955.015 3.961-.236 3.928 1.758Z"/></svg>