<svg xmlns="http://www.w3.org/2000/svg" width="32" height="33" fill="none"><path stroke="#99E39E" stroke-linecap="round" stroke-linejoin="round" stroke-width="2" d="M8.777 10.385c4.01.707 6.399 2.186 7.223 3.035.824-.85 3.214-2.328 7.223-3.035 2.032-.358 3.047-.537 3.912.15.865.686.865 1.8.865 4.029v8.01c0 2.038 0 3.057-.555 3.693-.555.636-1.777.851-4.222 1.282-2.179.384-3.88.996-5.11 1.611-1.211.606-1.817.908-2.113.908-.296 0-.902-.302-2.113-.908-1.23-.615-2.931-1.227-5.11-1.61-2.445-.432-3.667-.647-4.222-1.283C4 25.63 4 24.612 4 22.574v-8.01c0-2.229 0-3.343.865-4.03.865-.686 1.88-.507 3.912-.149Z"/><path stroke="#99E39E" stroke-linejoin="round" stroke-width="2" d="M16 12.735v17.333"/><path stroke="#99E39E" stroke-linecap="round" stroke-width="2" d="M11.333 4.813a8.391 8.391 0 0 1 9.334.013m-2.504 3.242a4.188 4.188 0 0 0-4.325-.012"/></svg>