<svg xmlns="http://www.w3.org/2000/svg" width="1204" height="79" fill="none"><g clip-path="url(#a)"><path fill="url(#b)" d="M16.264 74.797H-10v161.884h1215V90.561l-79.36-47.898-45.68 7.882-29.69-7.882-32.54 7.882-41.23-39.486-53.552 39.486-75.939 9.7-37.112-17.582L756.798 56H723.11l-53.669-19.4L638 32.06l-18.232-17.894L600.355.827l-48.532 41.836h-22.838l-18.841 9.094h-27.407L453.048 66.31l-45.677-6.063-38.825 9.7-91.353-18.189L222.5 13.751l-30.38 33.762-62.806 18.796H87.063l-53.1 11.52-17.699-3.032Z"/><path stroke="#99E39E" stroke-width="1.5" d="M15.286 75.691H-11v164.044h1216V91.665l-79.43-48.537-45.71 7.987-29.72-7.987-32.57 7.987-43.07-39.467-51.784 39.467-76.001 9.83-37.143-17.817-53.143 13.517h-33.715L669 36.985l-31-5.147-18.714-17.586L599.858.735l-48.573 42.393h-22.856l-18.857 9.216h-27.429L452.429 67.09l-45.715-6.144-38.857 9.83-91.428-18.432L221.5 12.74l-30.214 35.304-62.858 19.047H86.142L33 78.763l-17.714-3.072Z"/></g><defs><linearGradient id="b" x1="597.5" x2="597.5" y1="-1056.13" y2="204.032" gradientUnits="userSpaceOnUse"><stop stop-color="#99E39E"/><stop offset="1" stop-color="#99E39E" stop-opacity="0"/></linearGradient><clipPath id="a"><path fill="#fff" d="M0 .735h1204v78H0z"/></clipPath></defs></svg>