<svg xmlns="http://www.w3.org/2000/svg" width="32" height="33" fill="none"><path stroke="#99E39E" stroke-linecap="round" stroke-width="2" d="M27.698 24.735c1 0 1.794-.629 2.508-1.508 1.46-1.8-.938-3.238-1.852-3.942-.93-.716-1.968-1.122-3.02-1.217M24 15.401a3.333 3.333 0 0 0 0-6.666m-19.699 16c-.999 0-1.794-.629-2.507-1.508-1.46-1.8.937-3.238 1.852-3.942.93-.716 1.968-1.122 3.02-1.217m.667-2.667a3.333 3.333 0 0 1 0-6.666"/><path stroke="#99E39E" stroke-linecap="round" stroke-linejoin="round" stroke-width="2" d="M10.778 20.883c-1.362.843-4.934 2.563-2.759 4.715 1.063 1.052 2.247 1.803 3.735 1.803h8.492c1.488 0 2.671-.752 3.734-1.803 2.176-2.152-1.396-3.872-2.759-4.715a9.942 9.942 0 0 0-10.443 0Z"/><path stroke="#99E39E" stroke-width="2" d="M20.666 10.735a4.667 4.667 0 1 1-9.333 0 4.667 4.667 0 0 1 9.333 0Z"/></svg>