<svg xmlns="http://www.w3.org/2000/svg" width="32" height="33" fill="none"><path fill="#627EEA" d="M16 32.432c8.837 0 16-7.164 16-16 0-8.837-7.163-16-16-16s-16 7.163-16 16c0 8.836 7.163 16 16 16Z"/><path fill="#fff" fill-opacity=".602" d="M16.499 4.43v8.87l7.497 3.35-7.497-12.22Z"/><path fill="#fff" d="M16.499 4.43 9.002 16.65l7.497-3.35V4.43Z"/><path fill="#fff" fill-opacity=".602" d="M16.499 22.398v6.027L24 18.045l-7.501 4.353Z"/><path fill="#fff" d="M16.499 28.425v-6.027l-7.497-4.352 7.497 10.38Z"/><path fill="#fff" fill-opacity=".2" d="m16.499 21.003 7.497-4.352-7.497-3.35v7.702Z"/><path fill="#fff" fill-opacity=".602" d="m9.002 16.65 7.497 4.353V13.3l-7.497 3.35Z"/></svg>