<svg xmlns="http://www.w3.org/2000/svg" width="20" height="21" fill="none"><path stroke="#99E39E" stroke-linejoin="round" stroke-width="1.25" d="M7.19 11.425h-.382c-1.237 0-1.855 0-2.118-.408-.264-.407-.013-.975.49-2.11L6.688 5.49c.457-1.032.685-1.549 1.128-1.838.443-.29 1.005-.29 2.129-.29h1.741c1.366 0 2.049 0 2.306.447.258.446-.081 1.042-.759 2.234l-.893 1.571c-.337.593-.505.89-.503 1.132.003.315.17.605.442.764.208.123.547.123 1.226.123.858 0 1.288 0 1.511.148a.9.9 0 0 1 .39.884c-.042.267-.33.586-.908 1.224l-4.612 5.1c-.906 1.003-1.36 1.503-1.664 1.345-.304-.159-.158-.82.134-2.141l.573-2.589c.222-1.006.333-1.51.066-1.845-.268-.335-.78-.335-1.806-.335Z"/></svg>