<svg xmlns="http://www.w3.org/2000/svg" width="32" height="33" fill="none"><g clip-path="url(#a)"><path fill="#fff" d="M16 30.7c7.88 0 14.268-6.388 14.268-14.268 0-7.88-6.388-14.268-14.268-14.268-7.88 0-14.268 6.388-14.268 14.268C1.732 24.312 8.12 30.7 16 30.7Z"/><path fill="#345D9D" d="M16 .432a16 16 0 1 0 16 16 15.954 15.954 0 0 0-15.907-16H16Zm.271 16.542-1.666 5.618h8.91a.448.448 0 0 1 .466.434v.147l-.775 2.673a.577.577 0 0 1-.581.426H8.988l2.286-7.787-2.557.775.58-1.782 2.558-.775L15.07 5.778a.585.585 0 0 1 .581-.426H19.1a.45.45 0 0 1 .465.434v.147l-2.712 9.22 2.557-.774-.542 1.86-2.596.735Z"/></g><defs><clipPath id="a"><path fill="#fff" d="M0 .432h32v32H0z"/></clipPath></defs></svg>