<svg xmlns="http://www.w3.org/2000/svg" width="24" height="25" fill="none"><path stroke="#99E39E" stroke-linecap="round" stroke-width="1.5" d="M20.5 16.563c-2.502 5.928-10.636 7.655-15.299 3.036C.63 15.069 2.045 6.864 8.057 4.235"/><path stroke="#99E39E" stroke-width="1.5" d="M17.683 13.235c1.888 0 2.832 0 3.441-.845.023-.032.06-.088.081-.122.548-.886.266-1.567-.299-2.93a10.182 10.182 0 0 0-5.51-5.51c-1.362-.564-2.043-.846-2.93-.298-.033.02-.09.058-.121.08-.845.61-.845 1.554-.845 3.442v2.11c0 1.92 0 2.88.596 3.476.597.597 1.557.597 3.476.597h2.111Z"/></svg>