<svg xmlns="http://www.w3.org/2000/svg" width="24" height="25" fill="none"><path stroke="#99E39E" stroke-linecap="round" stroke-width="1.5" d="M5 9.735c0-3.3 0-4.95 1.025-5.975C7.05 2.735 8.7 2.735 12 2.735s4.95 0 5.975 1.025C19 4.785 19 6.435 19 9.735v6c0 3.3 0 4.95-1.025 5.975C16.95 22.735 15.3 22.735 12 22.735s-4.95 0-5.975-1.025C5 20.685 5 19.035 5 15.735v-6Z"/><path stroke="#99E39E" stroke-linecap="round" stroke-linejoin="round" stroke-width="1.5" d="M11 19.735h2"/><path stroke="#99E39E" stroke-linejoin="round" stroke-width="1.5" d="m9 2.735.089.534c.193 1.157.29 1.736.686 2.088.414.367 1.001.378 2.225.378 1.224 0 1.81-.01 2.225-.378.397-.352.493-.93.686-2.088L15 2.735"/></svg>