<svg xmlns="http://www.w3.org/2000/svg" width="32" height="31" fill="none"><path fill="#E6007A" d="M16.001 6.415c3.046 0 5.515-1.436 5.515-3.208C21.516 1.436 19.046 0 16 0s-5.515 1.436-5.515 3.207c0 1.772 2.47 3.208 5.515 3.208Zm0 24.165c3.046 0 5.515-1.435 5.515-3.206 0-1.772-2.47-3.208-5.515-3.208-3.046 0-5.515 1.436-5.515 3.207 0 1.772 2.47 3.208 5.515 3.208ZM8.316 10.855C9.84 8.217 9.83 5.36 8.294 4.475c-1.535-.887-4.014.533-5.536 3.17-1.523 2.638-1.513 5.494.022 6.38 1.535.887 4.014-.533 5.536-3.17ZM29.24 22.936c1.524-2.638 1.515-5.494-.02-6.38-1.533-.885-4.011.535-5.534 3.172-1.523 2.638-1.514 5.494.02 6.38 1.534.885 4.012-.535 5.535-3.172ZM8.294 26.107c1.535-.886 1.545-3.743.022-6.38-1.523-2.638-4.002-4.058-5.537-3.172-1.535.887-1.545 3.743-.022 6.38 1.523 2.638 4.002 4.058 5.537 3.172Zm20.928-12.081c1.534-.885 1.543-3.742.02-6.379-1.522-2.638-4-4.058-5.534-3.172-1.534.886-1.543 3.742-.02 6.38 1.522 2.637 4 4.057 5.534 3.171Z"/></svg>