<svg xmlns="http://www.w3.org/2000/svg" width="20" height="21" fill="none"><path stroke="#99E39E" stroke-width="1.25" d="M12.917 10.864a2.917 2.917 0 1 1-5.834 0 2.917 2.917 0 0 1 5.834 0Z"/><path stroke="#99E39E" stroke-linecap="round" stroke-width="1.25" d="M17.51 12.61c.434-.116.651-.175.737-.287.086-.112.086-.293.086-.654v-1.61c0-.362 0-.542-.086-.654-.085-.112-.303-.171-.738-.288-1.625-.439-2.643-2.138-2.223-3.752.115-.445.173-.667.118-.797-.055-.13-.213-.22-.53-.4l-1.437-.815c-.31-.176-.465-.264-.604-.246-.14.02-.296.176-.61.49-1.216 1.212-3.228 1.212-4.444-.001-.315-.313-.472-.47-.61-.489-.14-.019-.295.07-.605.246l-1.438.816c-.316.18-.474.269-.529.4-.055.13.003.351.118.795.42 1.615-.599 3.314-2.224 3.753-.435.117-.653.176-.738.288-.086.112-.086.292-.086.653v1.611c0 .361 0 .542.086.654.085.112.303.17.738.288 1.625.438 2.642 2.137 2.223 3.752-.115.444-.173.666-.118.797.055.13.213.22.53.399l1.436.816c.31.176.466.264.605.245.14-.018.296-.175.61-.489 1.217-1.213 3.23-1.214 4.447 0 .314.314.471.47.61.49.14.018.295-.07.605-.246l1.437-.816c.316-.18.474-.27.53-.4.054-.13-.003-.352-.119-.796-.42-1.614.597-3.314 2.222-3.752Z"/></svg>