<svg xmlns="http://www.w3.org/2000/svg" width="26" height="21" fill="none"><path fill="url(#a)" d="M22.25 4.97a.664.664 0 0 1-.266.18.794.794 0 0 1-.322.062H.835c-.735 0-1.112-.894-.597-1.43L3.658.25a.748.748 0 0 1 .276-.187A.794.794 0 0 1 4.256 0h20.91c.744 0 1.112.903.588 1.44L22.25 4.97Zm0 15.789a.848.848 0 0 1-.588.241H.835C.1 21-.277 20.124.238 19.605l3.42-3.45a.697.697 0 0 1 .276-.18.794.794 0 0 1 .322-.062h20.91c.744 0 1.112.885.588 1.404l-3.503 3.442Zm0-12.561a.848.848 0 0 0-.588-.241H.835c-.735 0-1.112.876-.597 1.394l3.42 3.451c.074.08.175.143.276.179a.794.794 0 0 0 .322.062h20.91c.744 0 1.112-.885.588-1.403L22.25 8.198Z"/><defs><linearGradient id="a" x1="1.59" x2="23.718" y1="21.262" y2="-.896" gradientUnits="userSpaceOnUse"><stop stop-color="#CF41E8"/><stop offset="1" stop-color="#10F2B0"/></linearGradient></defs></svg>