<svg xmlns="http://www.w3.org/2000/svg" width="32" height="33" fill="none"><path stroke="#99E39E" stroke-width="2" d="M22.667 15.14c0-.46 0-.69.069-.896.202-.596.733-.828 1.265-1.07.599-.273.898-.41 1.195-.433.336-.028.674.045.961.206.382.214.648.621.92.952 1.258 1.528 1.887 2.292 2.117 3.134a3.91 3.91 0 0 1 0 2.07c-.336 1.23-1.396 2.26-2.181 3.212-.401.488-.602.732-.856.874a1.692 1.692 0 0 1-.961.207c-.297-.024-.596-.16-1.195-.433-.532-.242-1.063-.474-1.265-1.07-.07-.206-.07-.437-.07-.898v-5.854Zm-13.334.001c0-.58-.016-1.102-.485-1.51-.17-.148-.397-.251-.85-.457-.598-.273-.897-.41-1.194-.433-.89-.072-1.368.535-1.881 1.158-1.258 1.528-1.887 2.292-2.117 3.134a3.917 3.917 0 0 0 0 2.07c.336 1.23 1.396 2.26 2.18 3.213.496.6.968 1.149 1.818 1.08.297-.024.596-.16 1.195-.433.452-.206.678-.309.849-.457.469-.408.485-.93.485-1.51V15.14Z"/><path stroke="#99E39E" stroke-linecap="square" stroke-linejoin="round" stroke-width="2" d="M6.667 12.735c0-4.418 4.178-8 9.333-8s9.333 3.582 9.333 8"/><path stroke="#99E39E" stroke-linecap="round" stroke-linejoin="round" stroke-width="2" d="M25.333 23.402v1.066c0 2.357-2.387 4.267-5.333 4.267h-2.667"/></svg>