<svg xmlns="http://www.w3.org/2000/svg" width="24" height="25" fill="none"><path stroke="#99E39E" stroke-linecap="round" stroke-linejoin="round" stroke-width="1.5" d="M10.125 15.235v-6m1.875 0v-1.5m0 9v-1.5m-1.875-3h3.75m0 0c.621 0 1.125.504 1.125 1.125v.75c0 .621-.504 1.125-1.125 1.125H9m4.875-3c.621 0 1.125-.504 1.125-1.125v-.75c0-.621-.504-1.125-1.125-1.125H9"/><path stroke="#99E39E" stroke-linecap="round" stroke-width="1.5" d="M21 11.918V9.015c0-1.64 0-2.46-.404-2.995-.404-.535-1.318-.794-3.145-1.314a24.574 24.574 0 0 1-3.229-1.173c-1.199-.532-1.798-.798-2.222-.798-.424 0-1.023.266-2.222.798-.88.39-1.98.818-3.229 1.173-1.827.52-2.74.78-3.145 1.314C3 6.555 3 7.375 3 9.015v2.903c0 5.626 5.063 9 7.594 10.337.607.32.91.48 1.406.48.495 0 .799-.16 1.406-.48C15.937 20.919 21 17.544 21 11.918Z"/></svg>